<svg xmlns="http://www.w3.org/2000/svg" xmlns:xlink="http://www.w3.org/1999/xlink" width="500" zoomAndPan="magnify" viewBox="0 0 375 374.999991" height="500" preserveAspectRatio="xMidYMid meet" version="1.0"><defs><clipPath id="ce1e8a933e"><path d="M 63.28125 191 L 147 191 L 147 375 L 63.28125 375 Z M 63.28125 191 " clip-rule="nonzero"/></clipPath><clipPath id="9edc1f701d"><path d="M 168 95 L 311.53125 95 L 311.53125 274 L 168 274 Z M 168 95 " clip-rule="nonzero"/></clipPath><clipPath id="2b7141b1cc"><path d="M 228 47 L 311.53125 47 L 311.53125 144 L 228 144 Z M 228 47 " clip-rule="nonzero"/></clipPath><clipPath id="87d4437a45"><path d="M 63.28125 0 L 229 0 L 229 144 L 63.28125 144 Z M 63.28125 0 " clip-rule="nonzero"/></clipPath></defs><g clip-path="url(#ce1e8a933e)"><path fill="#010f20" d="M 69.738281 330.910156 L 146.023438 375 L 146.023438 191.222656 L 63.292969 239.039062 L 63.292969 327.1875 Z M 69.738281 330.910156 " fill-opacity="1" fill-rule="evenodd"/></g><g clip-path="url(#9edc1f701d)"><path fill="#010f20" d="M 168.417969 178.289062 L 168.417969 273.886719 L 228.753906 239.039062 L 311.519531 191.222656 L 311.519531 95.59375 L 228.753906 143.410156 Z M 168.417969 178.289062 " fill-opacity="1" fill-rule="evenodd"/></g><g clip-path="url(#2b7141b1cc)"><path fill="#010f20" d="M 228.753906 143.410156 L 311.519531 95.59375 L 228.753906 47.8125 Z M 228.753906 143.410156 " fill-opacity="1" fill-rule="evenodd"/></g><g clip-path="url(#87d4437a45)"><path fill="#010f20" d="M 146.023438 95.59375 L 228.753906 47.8125 L 146.023438 0 L 63.292969 47.8125 L 63.292969 143.410156 Z M 146.023438 95.59375 " fill-opacity="1" fill-rule="evenodd"/></g></svg>